<svg width="1400" height="374" viewBox="0 0 1400 374" fill="none" xmlns="http://www.w3.org/2000/svg">
<path d="M55.3124 366.953H0V7.04711H63.3578L230.301 283.898H231.306V7.04711H287.121V366.953H223.764L56.318 90.1023H55.3124V366.953Z" fill="#EF5143"/>
<path d="M496.248 374C397.691 374 355.955 322.153 355.955 244.635V7.04711H411.268V244.635C411.268 300.509 439.427 326.18 496.248 326.18C553.571 326.18 581.228 300.509 581.228 244.635V7.04711H637.043V244.635C637.043 322.153 595.307 374 496.248 374Z" fill="#EF5143"/>
<path d="M761.449 366.953H706.136V7.04711H769.494L936.437 283.898H937.442V7.04711H993.258V366.953H929.9L762.454 90.1023H761.449V366.953Z" fill="#EF5143"/>
<path d="M1223.5 374C1115.9 374 1047.01 294.972 1047.01 186.748C1047.01 78.5249 1115.9 0 1223.5 0C1331.11 0 1400 78.5249 1400 186.748C1400 294.972 1331.11 374 1223.5 374ZM1223.5 326.18C1308.48 326.18 1342.17 260.743 1342.17 186.748C1342.17 112.754 1308.48 47.8197 1223.5 47.8197C1138.52 47.8197 1104.83 112.754 1104.83 186.748C1104.83 260.743 1138.52 326.18 1223.5 326.18Z" fill="#EF5143"/>
</svg>
