<svg width="783" height="663" viewBox="0 0 783 663" fill="none" xmlns="http://www.w3.org/2000/svg">
<path d="M350.403 168.826C350.403 262.999 300.895 302.878 226.873 302.878L-3.00859e-06 302.878L-7.62906e-06 250.026L226.873 250.026C280.227 250.026 304.74 223.119 304.74 168.826C304.74 114.052 280.227 87.626 226.873 87.626L-2.18265e-05 87.626L-2.6489e-05 34.2935L226.873 34.2936C300.895 34.2936 350.403 74.1727 350.403 168.826Z" fill="#EF5143"/>
<path d="M783 168.646C783 271.467 707.536 337.292 604.193 337.292C500.851 337.292 425.867 271.467 425.867 168.646C425.867 65.8249 500.851 2.46663e-05 604.193 1.56318e-05C707.536 6.59728e-06 783 65.8249 783 168.646ZM737.337 168.646C737.337 87.4461 674.851 55.2545 604.193 55.2545C533.536 55.2545 471.53 87.4461 471.53 168.646C471.53 249.846 533.536 282.038 604.193 282.038C674.851 282.038 737.337 249.846 737.337 168.646Z" fill="white"/>
<path d="M67.4256 663L0 663L2.24008e-05 391L77.233 391L280.736 600.231L281.961 600.231L281.961 391L350 391L350 663L272.767 663L68.6515 453.769L67.4256 453.769L67.4256 663Z" fill="#EF5143"/>
<path d="M489.93 663L420 663L420 391L500.102 391L711.163 600.231L712.434 600.231L712.434 391L783 391L783 663L702.898 663L491.201 453.769L489.93 453.769L489.93 663Z" fill="white"/>
</svg>
